<svg width="103" height="43" viewBox="0 0 103 43" fill="none" xmlns="http://www.w3.org/2000/svg">
<path d="M26.11 36.1299C26.11 38.0699 25.81 39.4599 25.21 40.2999C24.61 41.1399 23.51 41.5599 21.91 41.5599H4.05999C2.93999 41.5599 2.04999 41.2099 1.38999 40.5099C0.749992 39.8099 0.429993 38.8499 0.429993 37.6299V0.909897L0.789993 0.519897H24.94C25.04 0.999897 25.1 1.4599 25.12 1.8999C25.14 2.3199 25.15 2.7099 25.15 3.0699C25.15 3.4299 25.11 3.8799 25.03 4.4199C24.95 4.9399 24.82 5.4399 24.64 5.9199H10.42C9.97999 5.9199 9.40999 5.9199 8.70999 5.9199C8.02999 5.9199 7.33999 5.9099 6.63999 5.8899C6.63999 6.6899 6.64999 7.3499 6.66999 7.8699C6.68999 8.3899 6.69999 9.0499 6.69999 9.8499V18.1899C7.39999 18.1899 8.07999 18.1899 8.73999 18.1899C9.41999 18.1699 9.97999 18.1599 10.42 18.1599H21.7C21.8 18.5799 21.88 19.0399 21.94 19.5399C22 20.0399 22.03 20.4599 22.03 20.7999C22.03 21.1599 22 21.5899 21.94 22.0899C21.88 22.5699 21.8 23.0299 21.7 23.4699H10.42C9.97999 23.4699 9.41999 23.4699 8.73999 23.4699C8.07999 23.4499 7.39999 23.4299 6.69999 23.4099V33.2199C6.69999 33.7599 6.68999 34.2599 6.66999 34.7199C6.64999 35.1799 6.63999 35.6899 6.63999 36.2499C7.21999 36.2099 7.82999 36.1799 8.46999 36.1599C9.10999 36.1399 9.81999 36.1299 10.6 36.1299H26.11ZM31.1256 33.4299C31.1256 31.1499 31.6256 29.2799 32.6256 27.8199C33.6456 26.3599 35.0156 25.2799 36.7356 24.5799C38.4756 23.8599 40.4256 23.4999 42.5856 23.4999C43.4256 23.4999 44.3456 23.5299 45.3456 23.5899C46.3656 23.6299 47.3756 23.7199 48.3756 23.8599V21.5499C48.3756 19.6699 47.9456 18.3199 47.0856 17.4999C46.2256 16.6799 45.0256 16.2699 43.4856 16.2699C41.9656 16.2699 40.3956 16.4999 38.7756 16.9599C37.1756 17.3999 35.5956 17.9299 34.0356 18.5499C33.5356 18.0499 33.1156 17.3699 32.7756 16.5099C32.4356 15.6299 32.2456 14.7899 32.2056 13.9899C33.9056 13.2699 35.8956 12.6299 38.1756 12.0699C40.4756 11.5099 42.6456 11.2299 44.6856 11.2299C47.6256 11.2299 49.9956 12.0499 51.7956 13.6899C53.5956 15.3299 54.4956 17.8699 54.4956 21.3099V33.6099C54.4956 34.7299 54.5956 35.7199 54.7956 36.5799C55.0156 37.4199 55.4756 38.1399 56.1756 38.7399C55.9956 39.2999 55.6856 39.8999 55.2456 40.5399C54.8056 41.1599 54.3356 41.6299 53.8356 41.9499C52.5956 41.7099 51.5856 41.2499 50.8056 40.5699C50.0456 39.8899 49.4656 39.0899 49.0656 38.1699C47.9856 39.2099 46.6856 40.1599 45.1656 41.0199C43.6456 41.8599 41.9056 42.2799 39.9456 42.2799C37.9656 42.2799 36.3156 41.8399 34.9956 40.9599C33.6956 40.0799 32.7256 38.9599 32.0856 37.5999C31.4456 36.2399 31.1256 34.8499 31.1256 33.4299ZM37.2756 33.0099C37.2756 34.2299 37.6256 35.2699 38.3256 36.1299C39.0256 36.9699 40.0256 37.3899 41.3256 37.3899C42.4456 37.3899 43.6356 37.0799 44.8956 36.4599C46.1556 35.8399 47.3156 34.9299 48.3756 33.7299V28.0599C47.4756 27.9599 46.5556 27.8899 45.6156 27.8499C44.6956 27.8099 43.8156 27.7899 42.9756 27.7899C41.1556 27.7899 39.7456 28.2499 38.7456 29.1699C37.7656 30.0899 37.2756 31.3699 37.2756 33.0099ZM64.0713 6.6399C64.0713 5.2599 64.3013 4.2599 64.7613 3.6399C65.2213 2.9999 66.1113 2.6799 67.4313 2.6799H69.7713L70.1313 3.0699V11.9199L77.571 11.8299C77.751 12.6099 77.841 13.3599 77.841 14.0799C77.841 14.8999 77.751 15.6699 77.571 16.3899L70.1313 16.2999V34.2399C70.1313 35.0399 70.3213 35.6799 70.7013 36.1599C71.0813 36.6199 71.7213 36.8499 72.6213 36.8499H76.731C77.071 37.7699 77.241 38.8099 77.241 39.9699C77.241 40.2099 77.231 40.4499 77.211 40.6899C77.211 40.9099 77.181 41.1199 77.121 41.3199C76.121 41.4399 75.051 41.5399 73.9113 41.6199C72.7713 41.7199 71.6113 41.7699 70.4313 41.7699C66.1913 41.7699 64.0713 39.7099 64.0713 35.5899V16.3299L59.6913 16.3899C59.5113 15.6699 59.4213 14.8999 59.4213 14.0799C59.4213 13.3599 59.5113 12.6099 59.6913 11.8299L64.0713 11.8899V6.6399ZM80.473 39.3099C80.493 38.6099 80.703 37.8299 81.103 36.9699C81.503 36.1099 81.973 35.4399 82.513 34.9599C83.773 35.6599 85.123 36.2799 86.563 36.8199C88.003 37.3599 89.463 37.6299 90.943 37.6299C92.583 37.6299 93.873 37.2799 94.813 36.5799C95.773 35.8799 96.263 34.9799 96.283 33.8799C96.283 32.0799 95.033 30.7199 92.533 29.7999L89.053 28.5099C86.973 27.7499 85.183 26.6999 83.683 25.3599C82.183 24.0199 81.433 22.2199 81.433 19.9599C81.433 18.1199 81.893 16.5399 82.813 15.2199C83.753 13.8999 85.023 12.8899 86.623 12.1899C88.223 11.4699 90.033 11.1099 92.053 11.1099C93.673 11.1099 95.393 11.3199 97.213 11.7399C99.053 12.1599 100.593 12.6699 101.833 13.2699C101.853 14.0299 101.693 14.8599 101.353 15.7599C101.013 16.6599 100.573 17.3399 100.033 17.7999C98.973 17.3399 97.743 16.8999 96.343 16.4799C94.943 16.0599 93.503 15.8499 92.023 15.8499C90.703 15.8499 89.643 16.1699 88.843 16.8099C88.063 17.4299 87.673 18.2699 87.673 19.3299C87.673 20.1699 87.973 20.8699 88.573 21.4299C89.193 21.9899 90.133 22.4999 91.393 22.9599L95.083 24.3099C97.323 25.1299 99.153 26.2699 100.573 27.7299C101.993 29.1699 102.703 31.0399 102.703 33.3399C102.703 36.1199 101.623 38.3099 99.463 39.9099C97.323 41.4899 94.483 42.2799 90.943 42.2799C88.823 42.2799 86.873 41.9799 85.093 41.3799C83.313 40.7799 81.773 40.0899 80.473 39.3099Z" fill="#009CBF"/>
</svg>
